<?xml version="1.0"?>
<svg xmlns="http://www.w3.org/2000/svg" xmlns:xlink="http://www.w3.org/1999/xlink" version="1.1" id="Capa_1" x="0px" y="0px" viewBox="0 0 455 455" style="enable-background:new 0 0 455 455;" xml:space="preserve" width="512px" height="512px" class=""><g><g>
	<path d="M67.5,320C30.28,320,0,350.28,0,387.5S30.28,455,67.5,455s67.5-30.28,67.5-67.5S104.72,320,67.5,320z M67.5,440   C38.552,440,15,416.449,15,387.5S38.552,335,67.5,335s52.5,23.551,52.5,52.5S96.448,440,67.5,440z" data-original="#000000" class="active-path" fill="#000000"/>
	<path d="M67.5,160C46.822,160,30,176.822,30,197.5S46.822,235,67.5,235c84.089,0,152.5,68.411,152.5,152.5   c0,20.678,16.822,37.5,37.5,37.5s37.5-16.822,37.5-37.5c0-60.768-23.664-117.898-66.633-160.867   C185.397,183.664,128.268,160,67.5,160z M257.5,410c-12.406,0-22.5-10.093-22.5-22.5C235,295.14,159.859,220,67.5,220   C55.094,220,45,209.907,45,197.5S55.094,175,67.5,175c56.761,0,110.124,22.104,150.26,62.24C257.896,277.375,280,330.739,280,387.5   C280,399.907,269.906,410,257.5,410z" data-original="#000000" class="active-path" fill="#000000"/>
	<path d="M424.532,236.656c-19.519-46.148-47.454-87.585-83.028-123.16c-35.576-35.576-77.013-63.511-123.16-83.029   C170.547,10.25,119.796,0,67.5,0C46.822,0,30,16.822,30,37.5S46.822,75,67.5,75C239.813,75,380,215.187,380,387.5   c0,20.678,16.822,37.5,37.5,37.5s37.5-16.822,37.5-37.5C455,335.205,444.749,284.454,424.532,236.656z M417.5,410   c-12.406,0-22.5-10.093-22.5-22.5C395,206.916,248.084,60,67.5,60C55.094,60,45,49.907,45,37.5S55.094,15,67.5,15   c50.277,0,99.063,9.852,145,29.282c44.359,18.762,84.194,45.618,118.396,79.82c34.203,34.202,61.059,74.037,79.821,118.397   c19.43,45.939,29.282,94.724,29.282,145C440,399.907,429.906,410,417.5,410z" data-original="#000000" class="active-path" fill="#000000"/>
</g></g> </svg>
